<?xml version="1.0" standalone="no"?>
<!DOCTYPE svg PUBLIC "-//W3C//DTD SVG 20010904//EN"
 "http://www.w3.org/TR/2001/REC-SVG-20010904/DTD/svg10.dtd">
<svg version="1.0" xmlns="http://www.w3.org/2000/svg"
 width="300.000000pt" height="79.000000pt" viewBox="0 0 300.000000 79.000000"
 preserveAspectRatio="xMidYMid meet">
<metadata>
Created by potrace 1.10, written by Peter Selinger 2001-2011
</metadata>
<g transform="translate(0.000000,79.000000) scale(0.100000,-0.100000)"
fill="#000000" stroke="none">
<path d="M140 545 c0 -63 4 -105 10 -105 6 0 10 16 10 35 l0 35 49 0 c62 0 94
24 94 70 0 49 -31 70 -104 70 l-59 0 0 -105z m128 73 c15 -15 15 -61 0 -76 -7
-7 -34 -12 -60 -12 l-48 0 0 50 0 50 48 0 c26 0 53 -5 60 -12z"/>
<path d="M350 545 c0 -79 3 -105 13 -105 9 0 12 11 9 35 -4 35 -4 35 36 35 35
0 43 -4 62 -35 12 -19 29 -35 37 -35 12 0 9 8 -11 34 l-26 35 25 25 c32 32 32
60 0 91 -20 21 -34 25 -85 25 l-60 0 0 -105z m128 73 c15 -15 15 -61 0 -76 -7
-7 -34 -12 -60 -12 l-48 0 0 50 0 50 48 0 c26 0 53 -5 60 -12z"/>
<path d="M570 545 l0 -105 75 0 c43 0 75 4 75 10 0 6 -28 10 -65 10 l-65 0 0
40 0 40 55 0 c30 0 55 5 55 10 0 6 -25 10 -55 10 l-55 0 0 35 0 35 60 0 c33 0
60 4 60 10 0 6 -30 10 -70 10 l-70 0 0 -105z"/>
<path d="M779 621 c-56 -56 -30 -158 45 -177 31 -7 93 3 102 17 10 17 -1 19
-32 7 -90 -34 -166 71 -99 137 26 27 91 35 113 13 6 -6 15 -8 19 -4 15 14 -31
36 -75 36 -35 0 -49 -6 -73 -29z"/>
<path d="M980 545 c0 -63 4 -105 10 -105 6 0 10 42 10 105 0 63 -4 105 -10
105 -6 0 -10 -42 -10 -105z"/>
<path d="M1097 639 c-24 -14 -47 -62 -47 -100 0 -22 10 -41 34 -65 28 -28 42
-34 76 -34 34 0 48 6 76 34 49 49 45 114 -10 158 -24 20 -100 24 -129 7z m108
-15 c19 -8 45 -55 45 -84 0 -33 -53 -80 -90 -80 -37 0 -90 47 -90 80 0 26 25
77 42 83 19 8 74 8 93 1z"/>
<path d="M1318 565 c3 -77 6 -87 29 -105 36 -28 88 -26 118 5 22 22 25 32 25
105 0 44 -4 80 -9 80 -5 0 -11 -36 -13 -81 -4 -89 -16 -109 -68 -109 -46 0
-60 27 -60 113 0 55 -4 77 -12 77 -10 0 -12 -22 -10 -85z"/>
<path d="M1557 632 c-21 -23 -22 -56 -3 -71 8 -6 33 -17 56 -24 51 -15 70 -38
51 -61 -15 -18 -63 -21 -92 -6 -11 6 -24 8 -31 4 -17 -11 32 -33 72 -34 44 0
80 24 80 54 0 29 -24 49 -78 65 -47 13 -61 33 -41 57 10 12 25 15 61 12 47 -5
64 4 32 16 -33 13 -91 6 -107 -12z"/>
<path d="M1780 640 c0 -5 17 -10 38 -10 l37 0 -3 -95 c-3 -82 -2 -95 12 -95
14 0 16 15 16 95 l0 95 35 0 c19 0 35 5 35 10 0 6 -35 10 -85 10 -50 0 -85 -4
-85 -10z"/>
<path d="M1998 621 c-28 -25 -33 -36 -33 -76 0 -40 5 -51 33 -76 73 -65 181
-19 182 79 0 35 -6 49 -29 73 -42 41 -107 41 -153 0z m137 -16 c27 -27 33 -79
12 -106 -52 -68 -158 -39 -160 44 -2 79 92 119 148 62z"/>
<path d="M2230 570 c0 -73 3 -83 25 -105 30 -31 83 -33 116 -6 21 17 25 30 29
105 4 65 2 86 -7 86 -9 0 -13 -22 -13 -78 0 -87 -14 -112 -61 -112 -50 0 -63
21 -67 109 -2 45 -8 81 -13 81 -5 0 -9 -36 -9 -80z"/>
<path d="M2485 628 c-31 -27 -43 -85 -26 -126 22 -54 111 -81 157 -48 24 18
13 31 -14 17 -36 -19 -72 -13 -104 19 -26 27 -30 36 -25 68 4 20 16 45 28 55
24 19 89 23 106 6 6 -6 16 -8 23 -4 21 13 -23 34 -72 35 -35 0 -54 -6 -73 -22z"/>
<path d="M2680 545 c0 -63 4 -105 10 -105 6 0 10 23 10 50 l0 50 69 0 68 0 -5
-50 c-4 -41 -2 -50 12 -50 14 0 16 15 16 105 0 90 -2 105 -16 105 -14 0 -16
-8 -12 -45 l6 -45 -70 0 -70 0 4 45 c2 31 -1 45 -9 45 -10 0 -13 -27 -13 -105z"/>
<path d="M782 128 l-2 -58 45 0 c33 0 45 4 45 15 0 10 10 15 30 15 18 0 33 -6
36 -15 4 -8 10 -15 15 -15 7 0 -31 94 -44 107 -3 3 -17 -18 -31 -46 -23 -44
-30 -51 -56 -51 -28 0 -29 2 -33 53 l-3 52 -2 -57z m137 5 c11 -21 9 -23 -13
-23 -24 0 -25 2 -14 25 6 14 12 24 13 23 1 -2 8 -13 14 -25z"/>
<path d="M1010 125 l0 -55 39 0 c43 0 57 11 45 38 -4 9 -6 25 -5 36 3 23 -15
36 -51 36 -27 0 -28 -2 -28 -55z m59 36 c19 -12 4 -31 -25 -31 -17 0 -24 5
-24 20 0 21 24 27 49 11z m16 -61 c0 -10 -12 -16 -32 -18 -28 -3 -33 0 -33 18
0 18 5 21 33 18 20 -2 32 -8 32 -18z"/>
<path d="M1131 131 c-22 -52 -28 -79 -10 -48 13 22 65 23 73 1 4 -9 9 -15 11
-12 6 6 -37 108 -46 108 -3 0 -16 -22 -28 -49z m43 3 c9 -23 8 -24 -14 -24
-22 0 -23 1 -14 24 8 20 20 20 28 0z"/>
<path d="M1233 173 c-25 -10 -14 -44 17 -55 37 -12 34 -34 -4 -31 -14 1 -24
-2 -21 -8 14 -22 75 -3 75 24 0 4 -16 15 -35 23 -19 8 -35 18 -35 23 0 13 28
21 47 14 11 -4 14 -3 9 5 -7 12 -31 14 -53 5z"/>
<path d="M1320 125 l0 -55 38 2 c36 1 36 1 5 5 -24 3 -33 9 -33 23 0 14 9 20
33 23 l32 4 -32 1 c-25 2 -33 7 -33 20 0 15 6 18 30 14 18 -3 30 0 30 7 0 6
-16 11 -35 11 l-35 0 0 -55z"/>
<path d="M1420 125 l0 -55 34 0 c35 0 66 27 66 57 0 23 -39 53 -70 53 -30 0
-30 -1 -30 -55z m78 7 c5 -30 -14 -52 -44 -52 -21 0 -24 5 -24 41 0 39 1 40
33 37 25 -2 33 -8 35 -26z"/>
<path d="M1580 180 c-7 -42 -7 -110 1 -110 5 0 9 17 9 38 l0 37 21 -35 21 -34
19 34 18 35 1 -37 c0 -21 5 -38 10 -38 6 0 10 25 10 55 0 30 -4 55 -8 55 -5 0
-16 -16 -25 -35 -9 -19 -20 -35 -24 -35 -5 0 -18 17 -30 38 -12 20 -22 35 -23
32z"/>
<path d="M1726 129 c-22 -51 -26 -84 -5 -46 12 21 57 23 65 2 4 -8 10 -15 15
-15 8 0 -27 88 -42 104 -5 6 -19 -13 -33 -45z m43 4 c11 -21 9 -23 -13 -23
-24 0 -25 2 -14 25 6 14 12 24 13 23 1 -2 8 -13 14 -25z"/>
<path d="M1820 125 c0 -34 4 -55 11 -55 6 0 9 6 6 14 -3 7 0 19 6 25 8 8 8 11
-1 11 -7 0 -9 10 -5 30 3 19 1 30 -6 30 -7 0 -11 -21 -11 -55z"/>
<path d="M1871 156 l-23 -25 23 -30 c31 -39 46 -40 17 -1 l-22 30 24 25 c13
14 19 25 13 25 -5 0 -20 -11 -32 -24z"/>
<path d="M1930 125 l0 -55 38 2 c36 1 36 1 5 5 -24 3 -33 9 -33 23 0 14 9 20
33 23 l32 4 -32 1 c-44 3 -46 32 -3 32 17 0 30 5 30 10 0 6 -16 10 -35 10
l-35 0 0 -55z"/>
<path d="M2026 167 c-11 -24 2 -87 20 -94 8 -3 25 -2 39 1 23 6 25 11 23 59
l-1 52 -6 -50 c-5 -45 -8 -50 -31 -50 -23 0 -26 5 -31 50 -3 36 -7 45 -13 32z"/>
<path d="M2140 125 c0 -30 5 -55 10 -55 6 0 10 6 10 13 0 7 15 17 32 22 60 18
41 75 -24 75 -27 0 -28 -1 -28 -55z m70 16 c0 -12 -9 -20 -25 -23 -21 -4 -25
-1 -25 18 0 19 5 24 25 24 18 0 25 -5 25 -19z"/>
</g>
</svg>
